<svg width="16" height="12" viewBox="0 0 16 12" fill="none" xmlns="http://www.w3.org/2000/svg">
<path d="M0.723315 6.67071C0.425563 6.1521 0.425561 5.51465 0.72331 4.99605C2.28997 2.26732 4.79585 0.5 7.61986 0.5C10.4438 0.5 12.9497 2.26729 14.5164 4.99599C14.8141 5.51459 14.8141 6.15204 14.5164 6.67065C12.9497 9.39938 10.4438 11.1667 7.61983 11.1667C4.79585 11.1667 2.28998 9.3994 0.723315 6.67071Z" stroke="#627084"/>
<path d="M9.61979 5.83333C9.61979 6.9379 8.72436 7.83333 7.61979 7.83333C6.51522 7.83333 5.61979 6.9379 5.61979 5.83333C5.61979 4.72876 6.51522 3.83333 7.61979 3.83333C8.72436 3.83333 9.61979 4.72876 9.61979 5.83333Z" stroke="#627084"/>
</svg>
