<svg width="16" height="13" viewBox="0 0 16 13" fill="none" xmlns="http://www.w3.org/2000/svg">
<path d="M3.97334 0.146447C3.77808 -0.0488155 3.4615 -0.0488155 3.26624 0.146447C3.07098 0.341709 3.07098 0.658291 3.26624 0.853553L3.61979 0.5L3.97334 0.146447ZM13.9329 11.5202C14.1282 11.7155 14.4447 11.7155 14.64 11.5202C14.8353 11.325 14.8353 11.0084 14.64 10.8131L14.2865 11.1667L13.9329 11.5202ZM0.723315 7.70825L1.15693 7.4593L1.15693 7.4593L0.723315 7.70825ZM0.72331 6.03359L1.15693 6.28255L1.15693 6.28255L0.72331 6.03359ZM14.5164 6.03354L14.0828 6.28249L14.0828 6.28249L14.5164 6.03354ZM14.1968 7.18656C14.123 7.45266 14.2789 7.72819 14.545 7.80196C14.8111 7.87574 15.0867 7.71982 15.1604 7.45372L14.6786 7.32014L14.1968 7.18656ZM9.99634 1.43821C9.73529 1.34818 9.45068 1.48682 9.36065 1.74788C9.27062 2.00893 9.40927 2.29354 9.67032 2.38357L9.83333 1.91089L9.99634 1.43821ZM13.2751 10.1838C13.4687 9.98683 13.4659 9.67026 13.269 9.47669C13.0721 9.28312 12.7555 9.28585 12.5619 9.48279L12.9185 9.83328L13.2751 10.1838ZM5.23737 2.50819C5.49322 2.40427 5.61637 2.11263 5.51245 1.85679C5.40853 1.60094 5.11688 1.47779 4.86104 1.58171L5.04921 2.04495L5.23737 2.50819ZM9.46225 7.64898L9.92286 7.84349L9.92286 7.84349L9.46225 7.64898ZM3.61979 0.5L3.26624 0.853553L9.22285 6.81017L9.57641 6.45662L9.92996 6.10306L3.97334 0.146447L3.61979 0.5ZM9.57641 6.45662L9.22285 6.81017L13.9329 11.5202L14.2865 11.1667L14.64 10.8131L9.92996 6.10306L9.57641 6.45662ZM7.61983 12.2042V11.7042C5.02066 11.7042 2.65983 10.0769 1.15693 7.4593L0.723315 7.70825L0.289702 7.95721C1.92013 10.797 4.57104 12.7042 7.61983 12.7042V12.2042ZM0.72331 6.03359L0.289695 5.78464C-0.0965675 6.45741 -0.0965649 7.28444 0.289702 7.95721L0.723315 7.70825L1.15693 7.4593C0.947692 7.09486 0.94769 6.64698 1.15693 6.28255L0.72331 6.03359ZM14.5164 6.03354L14.0828 6.28249C14.2421 6.55997 14.2801 6.88588 14.1968 7.18656L14.6786 7.32014L15.1604 7.45372C15.3143 6.89878 15.2442 6.29697 14.95 5.78458L14.5164 6.03354ZM9.83333 1.91089L9.67032 2.38357C11.434 2.99178 12.9883 4.37619 14.0828 6.28249L14.5164 6.03354L14.95 5.78458C13.7603 3.71245 12.0322 2.14029 9.99634 1.43821L9.83333 1.91089ZM12.9185 9.83328L12.5619 9.48279C11.1797 10.8891 9.46324 11.7042 7.61983 11.7042V12.2042V12.7042C9.77459 12.7042 11.7375 11.7482 13.2751 10.1838L12.9185 9.83328ZM0.72331 6.03359L1.15693 6.28255C2.18199 4.49715 3.61111 3.16877 5.23737 2.50819L5.04921 2.04495L4.86104 1.58171C2.99108 2.34127 1.4044 3.8431 0.289695 5.78464L0.72331 6.03359ZM9.55946 6.38342L9.07455 6.5053C9.07913 6.52355 9.08337 6.54185 9.08725 6.5602L9.57641 6.45662L10.0656 6.35304C10.0591 6.32245 10.052 6.29195 10.0444 6.26154L9.55946 6.38342ZM9.57641 6.45662L9.08725 6.5602C9.15065 6.85958 9.12103 7.17172 9.00163 7.45447L9.46225 7.64898L9.92286 7.84349C10.1219 7.37224 10.1712 6.85202 10.0656 6.35303L9.57641 6.45662ZM9.46225 7.64898L9.00163 7.45447C8.87491 7.75455 8.65396 8.00522 8.37215 8.1686L8.62294 8.60116L8.87373 9.03372C9.3434 8.76141 9.71166 8.34362 9.92286 7.84349L9.46225 7.64898ZM8.62294 8.60116L8.37215 8.1686C8.09035 8.33198 7.76303 8.39919 7.43965 8.36007L7.3796 8.85646L7.31955 9.35284C7.85852 9.41804 8.40406 9.30602 8.87373 9.03372L8.62294 8.60116ZM7.3796 8.85646L7.43965 8.36007C7.11626 8.32095 6.81441 8.17763 6.57969 7.95176L6.23299 8.31204L5.8863 8.67232C6.27748 9.04876 6.78058 9.28764 7.31955 9.35284L7.3796 8.85646ZM6.23299 8.31204L6.57969 7.95176C6.34498 7.7259 6.19017 7.42976 6.13866 7.10812L5.64495 7.18719L5.15125 7.26625C5.23709 7.80232 5.49511 8.29587 5.8863 8.67232L6.23299 8.31204ZM5.64495 7.18719L6.13866 7.10812C6.08716 6.78648 6.14175 6.45682 6.29419 6.16895L5.85232 5.93496L5.41045 5.70096C5.15638 6.18074 5.0654 6.73018 5.15125 7.26625L5.64495 7.18719ZM5.85232 5.93496L6.29419 6.16895C6.44663 5.88108 6.68864 5.65066 6.98363 5.51251L6.77157 5.05971L6.55952 4.6069C6.06787 4.83715 5.66452 5.22119 5.41045 5.70096L5.85232 5.93496ZM6.77157 5.05971L6.98363 5.51251C7.27862 5.37437 7.61057 5.336 7.9293 5.40321L8.03246 4.91397L8.13563 4.42473C7.60442 4.31271 7.05117 4.37666 6.55952 4.6069L6.77157 5.05971Z" fill="#627084"/>
</svg>
