<svg width="15" height="15" viewBox="0 0 15 15" fill="none" xmlns="http://www.w3.org/2000/svg">
<path d="M6.6638 0.807385C6.83489 0.397538 7.41553 0.397538 7.58662 0.807385L9.05433 4.32331C9.12271 4.4871 9.27279 4.60237 9.44868 4.62618L13.3169 5.14973C13.7504 5.20839 13.9049 5.75605 13.566 6.0326L10.5792 8.46995C10.4315 8.59044 10.3652 8.78439 10.4081 8.97006L11.3631 13.0966C11.4665 13.5434 10.9641 13.8821 10.5887 13.6186L7.41245 11.3893C7.24006 11.2684 7.01035 11.2684 6.83797 11.3893L3.66167 13.6187C3.28632 13.8821 2.78392 13.5435 2.88731 13.0967L3.84218 8.97005C3.88514 8.78439 3.81882 8.59044 3.67117 8.46995L0.684408 6.03259C0.345525 5.75605 0.500022 5.20839 0.933471 5.14973L4.80173 4.62618C4.97762 4.60237 5.12771 4.4871 5.19608 4.32331L6.6638 0.807385Z" stroke="#627084" stroke-miterlimit="3.3292" stroke-linecap="round" stroke-linejoin="round"/>
</svg>
