<svg width="16" height="16" viewBox="0 0 16 16" fill="none" xmlns="http://www.w3.org/2000/svg">
<path d="M2.85352 0.5C3.13304 0.50004 3.36859 0.589431 3.55469 0.791992L3.63184 0.885742L5.46875 3.47363V3.47461C5.73262 3.85041 5.80654 4.07982 5.80664 4.23242C5.80664 4.39378 5.72757 4.58057 5.46191 4.88184L5.33984 5.01465L4.73145 5.64062C4.53256 5.84225 4.46094 6.08649 4.46094 6.30664C4.46104 6.55539 4.55948 6.76505 4.60059 6.85547L4.60547 6.86719L4.61133 6.87793C4.77501 7.19505 5.06833 7.59009 5.40723 7.99414C5.75248 8.40577 6.16772 8.85327 6.5957 9.28125L6.59766 9.2832C7.33768 10.0157 8.161 10.7424 8.75977 11.1279L9.00195 11.2715L9.01367 11.2773C9.12127 11.3311 9.33429 11.4248 9.58008 11.4248C9.81634 11.4247 10.0639 11.3341 10.2559 11.1436L10.8633 10.5449C11.2371 10.1793 11.4651 10.0791 11.6445 10.0791C11.7644 10.0791 11.9256 10.1192 12.1553 10.2461L12.4082 10.4043L15.0312 12.2666C15.2828 12.4504 15.3857 12.6989 15.3857 12.9893C15.3857 13.4106 15.1782 13.887 14.7793 14.332C14.1009 15.0776 13.2705 15.4111 12.2959 15.4111C11.1878 15.4111 9.90929 14.9773 8.58008 14.2129C7.2572 13.4521 5.92022 12.385 4.70605 11.1709V11.1699L4.25781 10.7109C3.2321 9.6288 2.33956 8.46856 1.68164 7.31836C0.926496 5.99813 0.500102 4.72568 0.5 3.61621C0.5 2.65175 0.821816 1.80065 1.5459 1.10645L1.54688 1.10547C1.97939 0.687628 2.44321 0.5 2.85352 0.5Z" stroke="#627084"/>
</svg>
