<svg width="16" height="12" viewBox="0 0 16 12" fill="none" xmlns="http://www.w3.org/2000/svg">
<path d="M11.1667 11.1667V9.83333M11.1667 11.1667H4.5M11.1667 11.1667H15.1667V10.1667C15.1667 8.878 14.122 7.83333 12.8333 7.83333C12.0805 7.83333 11.411 8.18984 10.9843 8.74322C11.1025 9.0848 11.1667 9.45157 11.1667 9.83333M4.5 11.1667V9.83333M4.5 11.1667H0.5V10.1667C0.5 8.878 1.54467 7.83333 2.83333 7.83333C3.58614 7.83333 4.25567 8.18984 4.68233 8.74322C4.56418 9.0848 4.5 9.45157 4.5 9.83333M11.1667 9.83333C11.1667 7.99238 9.67428 6.5 7.83333 6.5C5.99238 6.5 4.5 7.99238 4.5 9.83333M9.83333 2.5C9.83333 3.60457 8.9379 4.5 7.83333 4.5C6.72876 4.5 5.83333 3.60457 5.83333 2.5C5.83333 1.39543 6.72876 0.5 7.83333 0.5C8.9379 0.5 9.83333 1.39543 9.83333 2.5ZM3.83333 4.5C3.83333 5.23638 3.23638 5.83333 2.5 5.83333C1.76362 5.83333 1.16667 5.23638 1.16667 4.5C1.16667 3.76362 1.76362 3.16667 2.5 3.16667C3.23638 3.16667 3.83333 3.76362 3.83333 4.5ZM14.5 4.5C14.5 5.23638 13.903 5.83333 13.1667 5.83333C12.4303 5.83333 11.8333 5.23638 11.8333 4.5C11.8333 3.76362 12.4303 3.16667 13.1667 3.16667C13.903 3.16667 14.5 3.76362 14.5 4.5Z" stroke="#627084"/>
</svg>
