<svg width="15" height="17" viewBox="0 0 15 17" fill="none" xmlns="http://www.w3.org/2000/svg">
<path d="M3.33335 3.83333C3.33335 4.10948 3.55721 4.33333 3.83335 4.33333C4.1095 4.33333 4.33335 4.10948 4.33335 3.83333L3.83335 3.83333L3.33335 3.83333ZM7.16669 0.5V0V0.5ZM0.5 8.50006H1C1 7.67163 1.67157 7.00006 2.5 7.00006V6.50006V6.00006C1.11929 6.00006 0 7.11935 0 8.50006H0.5ZM2.5 6.50006V7.00006H11.8333V6.50006V6.00006H2.5V6.50006ZM11.8333 6.50006V7.00006C12.6618 7.00006 13.3333 7.67163 13.3333 8.50006H13.8333H14.3333C14.3333 7.11935 13.214 6.00006 11.8333 6.00006V6.50006ZM13.8333 8.50006H13.3333V13.8334H13.8333H14.3333V8.50006H13.8333ZM13.8333 13.8334H13.3333C13.3333 14.6618 12.6618 15.3334 11.8333 15.3334V15.8334V16.3334C13.214 16.3334 14.3333 15.2141 14.3333 13.8334H13.8333ZM11.8333 15.8334V15.3334H2.5V15.8334V16.3334H11.8333V15.8334ZM2.5 15.8334V15.3334C1.67157 15.3334 1 14.6618 1 13.8334H0.5H0C0 15.2141 1.11929 16.3334 2.5 16.3334V15.8334ZM0.5 13.8334H1V8.50006H0.5H0V13.8334H0.5ZM3.83335 3.83333L4.33335 3.83333C4.33335 3.08189 4.63186 2.36122 5.16322 1.82986L4.80966 1.47631L4.45611 1.12276C3.73722 1.84165 3.33335 2.81667 3.33335 3.83333L3.83335 3.83333ZM4.80966 1.47631L5.16322 1.82986C5.69457 1.29851 6.41524 1 7.16669 1V0.5V0C6.15002 0 5.175 0.403868 4.45611 1.12276L4.80966 1.47631ZM7.16669 0.5V1C7.91813 1 8.6388 1.29851 9.17016 1.82986L9.52371 1.47631L9.87726 1.12276C9.15837 0.403868 8.18335 0 7.16669 0V0.5ZM9.52371 1.47631L9.17016 1.82986C9.70151 2.36122 10 3.08189 10 3.83333H10.5H11C11 2.81667 10.5962 1.84165 9.87726 1.12276L9.52371 1.47631ZM10.5 3.83333H10V6.50006H10.5H11V3.83333H10.5Z" fill="#627084"/>
</svg>
