<svg width="15" height="16" viewBox="0 0 15 16" fill="none" xmlns="http://www.w3.org/2000/svg">
<path d="M3.83333 5.83333V3.83333C3.83333 2.94928 4.18452 2.10143 4.80964 1.47631C5.43477 0.851189 6.28261 0.5 7.16667 0.5C8.05072 0.5 8.89857 0.851189 9.52369 1.47631C10.1488 2.10143 10.5 2.94928 10.5 3.83333V5.83333M0.5 7.83333C0.5 6.72876 1.39543 5.83333 2.5 5.83333H11.8333C12.9379 5.83333 13.8333 6.72876 13.8333 7.83333V13.1667C13.8333 14.2712 12.9379 15.1667 11.8333 15.1667H2.5C1.39543 15.1667 0.5 14.2712 0.5 13.1667V7.83333Z" stroke="#627084"/>
</svg>
