<svg width="16" height="15" viewBox="0 0 16 15" fill="none" xmlns="http://www.w3.org/2000/svg">
<path d="M7.16667 6.66667C6.89052 6.66667 6.66667 6.89052 6.66667 7.16667C6.66667 7.44281 6.89052 7.66667 7.16667 7.66667V7.16667V6.66667ZM8.5 7.66667C8.77614 7.66667 9 7.44281 9 7.16667C9 6.89052 8.77614 6.66667 8.5 6.66667V7.16667V7.66667ZM2.5 3.16667V3.66667H13.1667V3.16667V2.66667H2.5V3.16667ZM15.1667 5.16667H14.6667V11.8333H15.1667H15.6667V5.16667H15.1667ZM13.1667 13.8333V13.3333H2.5V13.8333V14.3333H13.1667V13.8333ZM0.5 11.8333H1V5.16667H0.5H0V11.8333H0.5ZM2.5 13.8333V13.3333C1.67157 13.3333 1 12.6618 1 11.8333H0.5H0C0 13.214 1.11929 14.3333 2.5 14.3333V13.8333ZM15.1667 11.8333H14.6667C14.6667 12.6618 13.9951 13.3333 13.1667 13.3333V13.8333V14.3333C14.5474 14.3333 15.6667 13.214 15.6667 11.8333H15.1667ZM13.1667 3.16667V3.66667C13.9951 3.66667 14.6667 4.33824 14.6667 5.16667H15.1667H15.6667C15.6667 3.78595 14.5474 2.66667 13.1667 2.66667V3.16667ZM2.5 3.16667V2.66667C1.11929 2.66667 0 3.78595 0 5.16667H0.5H1C1 4.33824 1.67157 3.66667 2.5 3.66667V3.16667ZM6.5 0.5V1H9.16667V0.5V0H6.5V0.5ZM10.5 1.83333H10V3.16667H10.5H11V1.83333H10.5ZM5.16667 3.16667H5.66667V1.83333H5.16667H4.66667V3.16667H5.16667ZM9.16667 0.5V1C9.6269 1 10 1.3731 10 1.83333H10.5H11C11 0.820811 10.1792 0 9.16667 0V0.5ZM6.5 0.5V0C5.48748 0 4.66667 0.820811 4.66667 1.83333H5.16667H5.66667C5.66667 1.3731 6.03976 1 6.5 1V0.5ZM0.5 8.5C0.238492 8.92616 0.23862 8.92624 0.238761 8.92633C0.238825 8.92637 0.238979 8.92646 0.239106 8.92654C0.239361 8.92669 0.239665 8.92688 0.24002 8.9271C0.240729 8.92753 0.241637 8.92808 0.242743 8.92875C0.244956 8.9301 0.247962 8.93192 0.251751 8.9342C0.259329 8.93876 0.270041 8.94515 0.283814 8.95327C0.311357 8.96949 0.351151 8.99259 0.402596 9.02157C0.505467 9.07952 0.655041 9.16107 0.846519 9.25831C1.22926 9.45268 1.78068 9.71038 2.46225 9.96776C3.82238 10.4814 5.71744 11 7.83333 11V10.5V10C5.87515 10 4.10354 9.51862 2.81553 9.03224C2.17303 8.78962 1.65499 8.54732 1.29931 8.36669C1.12158 8.27643 0.984695 8.20173 0.893411 8.15031C0.847779 8.1246 0.813571 8.10473 0.791382 8.09165C0.780288 8.08512 0.772202 8.08029 0.767197 8.07728C0.764695 8.07577 0.762964 8.07472 0.762012 8.07414C0.761537 8.07385 0.761256 8.07368 0.761172 8.07363C0.761129 8.07361 0.761136 8.07361 0.761192 8.07364C0.76122 8.07366 0.761299 8.07371 0.761313 8.07372C0.761404 8.07377 0.761508 8.07384 0.5 8.5ZM7.83333 10.5V11C9.94923 11 11.8443 10.4814 13.2044 9.96776C13.886 9.71038 14.4374 9.45268 14.8201 9.25831C15.0116 9.16107 15.1612 9.07952 15.2641 9.02157C15.3155 8.99259 15.3553 8.96949 15.3829 8.95327C15.3966 8.94515 15.4073 8.93876 15.4149 8.9342C15.4187 8.93192 15.4217 8.9301 15.4239 8.92875C15.425 8.92808 15.4259 8.92753 15.4266 8.9271C15.427 8.92688 15.4273 8.92669 15.4276 8.92654C15.4277 8.92646 15.4278 8.92637 15.4279 8.92633C15.428 8.92624 15.4282 8.92616 15.1667 8.5C14.9052 8.07384 14.9053 8.07377 14.9054 8.07372C14.9054 8.07371 14.9054 8.07366 14.9055 8.07364C14.9055 8.07361 14.9055 8.07361 14.9055 8.07363C14.9054 8.07368 14.9051 8.07385 14.9047 8.07414C14.9037 8.07472 14.902 8.07577 14.8995 8.07728C14.8945 8.08029 14.8864 8.08512 14.8753 8.09165C14.8531 8.10473 14.8189 8.1246 14.7733 8.15031C14.682 8.20173 14.5451 8.27643 14.3674 8.36669C14.0117 8.54732 13.4936 8.78962 12.8511 9.03224C11.5631 9.51862 9.79151 10 7.83333 10V10.5ZM7.16667 7.16667V7.66667H8.5V7.16667V6.66667H7.16667V7.16667Z" fill="#627084"/>
</svg>
